<svg width="136" height="136" viewBox="0 0 136 136" fill="none" xmlns="http://www.w3.org/2000/svg">
<g clip-path="url(#clip0_128_413)">
<path fill-rule="evenodd" clip-rule="evenodd" d="M76.8731 66.0572C79.7904 63.1391 83.4379 57.7901 81.2497 53.3315C79.8717 50.576 77.0347 41.9031 79.629 38.9044C78.9798 43.3628 80.5196 48.3877 82.6277 52.1157C85.303 57.2222 81.0062 64.5171 76.8731 66.0572Z" stroke="#FF6600" stroke-width="9.89991e-05" stroke-miterlimit="2.61313" stroke-linecap="square" stroke-linejoin="round"/>
<path fill-rule="evenodd" clip-rule="evenodd" d="M76.8731 66.0572C79.7904 63.1391 83.4379 57.7901 81.2497 53.3315C79.8717 50.576 77.0347 41.9031 79.629 38.9044C78.9798 43.3628 80.5196 48.3877 82.6277 52.1157C85.303 57.2222 81.0062 64.5171 76.8731 66.0572Z" fill="#FF6600"/>
<path fill-rule="evenodd" clip-rule="evenodd" d="M71.2229 89.6453H68.6292C68.3054 89.6453 68.0625 89.8881 68.0625 90.2119V92.8056C68.0625 93.1294 68.3054 93.3739 68.6292 93.3739H71.2229C71.5483 93.3739 71.7912 93.1294 71.7912 92.8056V90.2119C71.7912 89.8881 71.5483 89.6453 71.2229 89.6453Z" fill="#FF6600"/>
<path fill-rule="evenodd" clip-rule="evenodd" d="M64.0087 89.6453H66.6024C66.9262 89.6453 67.1691 89.8881 67.1691 90.2119V92.8056C67.1691 93.1294 66.9262 93.3739 66.6024 93.3739H64.0087C63.6849 93.3739 63.4404 93.1294 63.4404 92.8056V90.2119C63.4404 89.8881 63.6849 89.6453 64.0087 89.6453Z" fill="#FF6600"/>
<path fill-rule="evenodd" clip-rule="evenodd" d="M64.0087 97.8305H66.6024C66.9262 97.8305 67.1691 97.5876 67.1691 97.2638V94.6701C67.1691 94.3463 66.9262 94.1018 66.6024 94.1018H64.0087C63.6849 94.1018 63.4404 94.3463 63.4404 94.6701V97.2638C63.4404 97.5876 63.6849 97.8305 64.0087 97.8305Z" fill="#FF6600"/>
<path fill-rule="evenodd" clip-rule="evenodd" d="M71.2219 97.8307H68.6282C68.3044 97.8307 68.0615 97.5878 68.0615 97.264V94.6703C68.0615 94.3465 68.3044 94.1021 68.6282 94.1021H71.2219C71.5473 94.1021 71.7902 94.3465 71.7902 94.6703V97.264C71.7902 97.5878 71.5473 97.8307 71.2219 97.8307Z" fill="#FF6600"/>
<path fill-rule="evenodd" clip-rule="evenodd" d="M74.3776 80.0804C74.0538 79.9185 73.6474 79.593 72.9998 79.1073C72.2696 78.539 70.3252 76.8374 68.8664 75.9453C68.0553 75.4596 67.0013 75.3787 66.1108 75.9453C65.3806 76.5136 64.8933 76.9184 64.1647 77.4867L45.1976 91.6711C43.4959 93.0489 42.1991 93.2918 43.6578 95.1553C44.0642 95.7236 44.5499 96.2903 44.9547 96.8586C46.1706 98.4792 46.3325 99.4523 48.4405 97.9109C52.8168 94.6696 57.1947 91.3457 61.6519 88.1044C63.1107 87.0504 64.5694 85.9154 65.9489 84.7805C67.3267 83.6471 67.5695 83.6471 69.0283 84.6186C70.3252 85.5107 71.5411 86.4837 72.8379 87.3758C76.7285 90.3743 81.1857 93.2918 84.9144 96.4522C85.4811 96.9395 86.0493 97.2633 86.616 97.749C88.4002 99.2094 88.805 98.9649 89.6971 97.749C90.2637 96.9395 91.0749 96.1284 91.5606 95.3172C91.9653 94.6696 92.2908 93.941 91.9653 93.3727C91.7225 92.968 86.8589 89.3203 84.8334 87.8615C84.2668 87.4551 81.4286 85.3488 81.2667 85.1868C81.0238 84.863 81.0238 84.3757 81.0238 83.1598V68.9753C81.0238 68.4896 81.0238 68.5706 80.6191 68.5706H75.5935C75.1888 68.5706 75.1078 68.4896 75.1078 68.8944V79.4311C75.0269 79.9185 75.1078 80.4042 74.3776 80.0804Z" fill="#FF6600"/>
<path fill-rule="evenodd" clip-rule="evenodd" d="M64.072 0.160929C57.6687 0.810167 53.4543 2.75464 49.0764 5.59121C44.4572 8.59131 41.0524 13.2121 38.5396 18.0741C37.4856 20.1821 36.5951 19.7757 33.5951 20.9106C17.7899 26.5854 9.19925 43.8493 14.3851 60.2211C16.1693 65.8959 20.2217 71.9754 25.0044 75.2167C28.4886 77.5676 31.0823 78.9454 35.3792 80.2423C36.919 80.728 38.3777 80.4851 38.6206 82.1058C38.946 83.5662 39.1063 85.1059 39.3508 86.5647C39.5936 87.8615 39.5127 89.9679 40.7286 90.1298C41.5381 90.2124 45.6715 87.1313 45.916 86.3218C46.1589 85.5106 45.916 84.1328 45.4287 80.5661C45.0239 76.9184 45.0239 75.4596 44.6191 74.812C44.2144 74.2437 43.5651 74.2437 41.8635 73.9199C34.4062 72.3802 26.9489 68.2467 24.0313 61.0323C19.736 50.4145 22.6535 37.8507 31.2458 31.2855C34.6491 28.6918 37.4047 27.4759 41.7016 26.3409C44.4572 25.6124 43.6461 23.0186 48.3478 17.5884C53.0479 12.1565 59.7767 8.67226 67.6371 8.83417C75.5008 8.67226 82.228 12.1565 86.9281 17.5884C91.6298 23.0186 90.7377 25.6124 93.5743 26.3409C97.8712 27.4759 100.627 28.6918 104.032 31.2855C112.703 37.8507 115.622 50.3336 111.245 61.0323C108.327 68.2467 100.87 72.3802 93.4124 73.9199C91.7107 74.2437 90.9822 74.2437 90.6567 74.812C90.252 75.4596 90.252 76.9184 89.8472 80.5661C89.4408 84.1328 89.117 85.5106 89.3599 86.3218C89.6027 87.1313 93.8187 90.2124 94.5473 90.1298C95.8442 89.9679 95.7632 87.8615 95.9251 86.5647C96.1696 85.1059 96.3315 83.5662 96.6553 82.1058C96.9791 80.5661 98.3569 80.728 99.8966 80.2423C104.194 79.0264 106.868 77.5676 110.271 75.2167C115.054 71.9754 119.107 65.8149 120.891 60.2211C125.997 43.8493 117.405 26.5854 101.681 20.9106C98.6824 19.8583 97.7903 20.1821 96.7363 18.0741C94.2235 13.2121 90.8203 8.59131 86.1995 5.59121C81.9042 2.75464 77.6072 0.810167 71.2039 0.160929C69.988 -0.000975947 68.7721 -0.000976562 67.6371 -0.000976562C66.5038 -0.000976562 65.2879 -0.000975947 64.072 0.160929Z" fill="#FF6600"/>
<path d="M78.955 134.184C78.5508 134.184 78.2227 134.03 77.9698 133.722C77.1858 132.767 77.7572 132.305 78.3355 131.559L90.3239 116.097C90.4824 115.893 90.4323 115.593 90.2502 115.415C90.0574 115.247 89.7701 115.277 89.6121 115.481L88.5231 116.886H80.3576C79.6248 116.886 79.0624 116.631 78.6711 116.123C78.2791 115.614 78.0836 114.946 78.0836 114.116H92.3351C92.7647 114.116 93.0991 114.25 93.3398 114.517C93.5797 114.785 93.6995 115.12 93.6995 115.521C93.6995 115.895 93.5857 116.243 93.3585 116.564L82.4105 130.633H80.4494C80.2002 130.633 79.9964 130.849 79.9964 131.113C79.9964 131.377 80.2002 131.593 80.4494 131.593H92.4842C92.7765 131.72 93.024 131.915 93.2259 132.177C93.6174 132.685 93.8134 133.354 93.8134 134.184H78.955Z" stroke="black" stroke-width="0.000203334" stroke-miterlimit="2.61313"/>
<path fill-rule="evenodd" clip-rule="evenodd" d="M78.954 134.184C78.5493 134.184 78.2222 134.03 77.9697 133.722C77.1844 132.767 77.7559 132.305 78.3356 131.559L90.323 116.096C90.4816 115.892 90.4314 115.592 90.2501 115.414C90.0558 115.247 89.7693 115.276 89.6122 115.48L88.5226 116.886H80.3561C79.6243 116.886 79.0625 116.631 78.6707 116.121C78.2789 115.613 78.083 114.944 78.083 114.115H92.3338C92.7645 114.115 93.098 114.25 93.3393 114.517C93.5789 114.784 93.6987 115.119 93.6987 115.521C93.6987 115.895 93.5854 116.243 93.3571 116.563L82.4091 130.633H80.4484C80.1991 130.633 79.9951 130.848 79.9951 131.114C79.9951 131.378 80.1991 131.593 80.4484 131.593H92.4828C92.7758 131.719 93.0235 131.915 93.2259 132.176C93.6161 132.684 93.812 133.353 93.812 134.184H78.954Z" fill="black"/>
<path d="M109.806 117.054C109.806 115.123 110.87 114.144 113.093 114.144C113.084 114.868 113.095 115.227 113.099 115.47C113.118 116.379 115.336 114.002 119.689 114.157C121.831 114.234 123.526 114.784 124.77 116.036C126.014 117.289 126.635 118.906 126.635 120.89V131.927C126.635 132.788 126.351 133.421 125.782 133.825C125.213 134.23 124.346 134.432 123.182 134.432V121.242C123.182 119.989 122.825 118.998 122.11 118.267C121.396 117.537 120.311 117.171 118.856 117.171C117.877 117.171 116.957 117.373 116.097 117.778C115.237 118.182 114.549 118.73 114.033 119.422C113.517 120.113 113.259 120.863 113.259 121.673V131.927C113.259 132.788 112.975 133.421 112.405 133.825C111.837 134.23 110.97 134.432 109.806 134.432V117.054Z" stroke="black" stroke-width="0.000303599" stroke-miterlimit="2.61313"/>
<path d="M109.809 117.054C109.809 115.122 110.872 114.143 113.095 114.143C113.087 114.868 113.098 115.226 113.103 115.47C113.121 116.378 115.339 114.002 119.693 114.157C121.833 114.233 123.53 114.782 124.773 116.035C126.017 117.288 126.639 118.906 126.639 120.889V131.926C126.639 132.788 126.354 133.421 125.785 133.825C125.217 134.23 124.349 134.432 123.185 134.432V121.242C123.185 119.989 122.827 118.996 122.113 118.266C121.399 117.536 120.315 117.17 118.859 117.17C117.88 117.17 116.96 117.373 116.1 117.777C115.24 118.182 114.552 118.729 114.036 119.421C113.519 120.112 113.262 120.863 113.262 121.671V131.926C113.262 132.788 112.977 133.421 112.409 133.825C111.84 134.23 110.973 134.432 109.809 134.432V117.054Z" fill="black"/>
<path d="M22.6767 130.796C16.3043 130.796 12.7466 125.597 12.7466 120.28C12.7466 114.963 16.3043 109.763 22.6767 109.763C25.6479 109.763 28.0326 110.897 29.7138 112.656C30.0657 113.008 30.6128 113.086 31.0428 112.813L32.5284 111.835C33.076 111.483 33.1934 110.701 32.724 110.232C30.2612 107.652 26.7426 106.088 22.6767 106.088C14.5843 106.088 8.75879 112.265 8.75879 120.28C8.75879 128.294 14.5843 134.432 22.6767 134.432C26.7426 134.432 30.2612 132.868 32.724 130.327C33.1934 129.858 33.076 129.076 32.5284 128.724L31.0428 127.747C30.6128 127.434 30.0657 127.512 29.7138 127.903C28.0326 129.662 25.6479 130.796 22.6767 130.796Z" stroke="black" stroke-width="0.000394543" stroke-miterlimit="2.61313"/>
<path d="M22.6761 130.796C16.3036 130.796 12.7465 125.597 12.7465 120.28C12.7465 114.963 16.3036 109.763 22.6761 109.763C25.6471 109.763 28.0319 110.898 29.7125 112.656C30.0655 113.008 30.6127 113.087 31.0417 112.813L32.528 111.835C33.0753 111.484 33.1918 110.702 32.7223 110.232C30.2597 107.652 26.7416 106.089 22.6761 106.089C14.5841 106.089 8.75879 112.266 8.75879 120.28C8.75879 128.295 14.5841 134.432 22.6761 134.432C26.7416 134.432 30.2597 132.868 32.7223 130.328C33.1918 129.859 33.0753 129.077 32.528 128.725L31.0417 127.747C30.6127 127.435 30.0655 127.513 29.7125 127.904C28.0319 129.663 25.6471 130.796 22.6761 130.796Z" fill="black"/>
<path d="M99.8955 116.263C99.8955 115.562 100.196 115.018 100.795 114.63C101.395 114.243 102.247 114.048 103.349 114.048V132.217C103.349 132.918 103.049 133.461 102.449 133.85C101.849 134.238 100.997 134.432 99.8955 134.432V116.263Z" stroke="black" stroke-width="0.000295785" stroke-miterlimit="2.61313"/>
<path d="M99.8906 116.263C99.8906 115.563 100.192 115.019 100.791 114.631C101.391 114.244 102.241 114.05 103.344 114.05V132.217C103.344 132.918 103.045 133.462 102.444 133.851C101.845 134.237 100.993 134.432 99.8906 134.432V116.263Z" fill="black"/>
<path d="M65.5934 134.432C63.9871 134.432 62.5327 134.129 61.2292 133.523C59.9259 132.918 58.9121 132.095 58.1879 131.055C57.4637 130.015 57.1016 128.85 57.1016 127.559V121.082C57.1016 119.766 57.4637 118.567 58.1879 117.488C58.9121 116.408 59.9191 115.552 61.2095 114.92C62.4997 114.288 63.961 113.973 65.5934 113.973C67.2258 113.973 68.694 114.288 69.9975 114.92C71.3007 115.552 72.3146 116.408 73.0384 117.488C73.7625 118.567 74.1246 119.766 74.1246 121.082V127.559C74.1246 128.85 73.7561 130.015 73.0187 131.055C72.2816 132.095 71.2678 132.918 69.9777 133.523C68.6871 134.129 67.2258 134.432 65.5934 134.432ZM65.5934 131.469C67.1736 131.469 68.4305 131.094 69.3655 130.344C70.3003 129.593 70.7675 128.612 70.7675 127.401V121.201C70.7675 120.421 70.5894 119.732 70.2342 119.133L71.5036 117.514C71.6183 117.368 71.5927 117.155 71.4462 117.039C71.2999 116.925 71.0865 116.95 70.9718 117.097L69.8202 118.564C69.6836 118.408 69.5316 118.261 69.3655 118.12C68.4305 117.33 67.1736 116.935 65.5934 116.935C64.0398 116.935 62.7893 117.33 61.8414 118.12C60.8934 118.91 60.4193 119.937 60.4193 121.201V127.401C60.4193 128.264 60.6565 129.01 61.1306 129.638L59.913 131.19C59.7984 131.336 59.824 131.55 59.9705 131.665C60.1168 131.78 60.3307 131.754 60.4454 131.608L61.5918 130.146C61.6653 130.214 61.7415 130.28 61.8218 130.344C62.7562 131.094 64.0137 131.469 65.5934 131.469Z" stroke="#FF6600" stroke-width="6.97072e-05" stroke-miterlimit="2.61313"/>
<path fill-rule="evenodd" clip-rule="evenodd" d="M65.5935 134.431C63.9874 134.431 62.5318 134.129 61.2285 133.523C59.9252 132.918 58.9117 132.095 58.1879 131.054C57.4626 130.015 57.1016 128.849 57.1016 127.559V121.082C57.1016 119.766 57.4626 118.566 58.1879 117.488C58.9117 116.408 59.9187 115.552 61.2091 114.92C62.4995 114.289 63.9598 113.973 65.5935 113.973C67.2255 113.973 68.6939 114.289 69.9973 114.92C71.3006 115.552 72.3141 116.408 73.0378 117.488C73.7616 118.566 74.1242 119.766 74.1242 121.082V127.559C74.1242 128.849 73.7551 130.015 73.0184 131.054C72.2818 132.095 71.2666 132.918 69.9778 133.523C68.6875 134.129 67.2255 134.431 65.5935 134.431ZM65.5935 131.469C67.1737 131.469 68.43 131.095 69.3642 130.343C70.3 129.594 70.7663 128.613 70.7663 127.402V121.201C70.7663 120.42 70.5882 119.732 70.2337 119.133L71.503 117.514C71.6179 117.368 71.592 117.155 71.4463 117.04C71.299 116.925 71.0853 116.951 70.9719 117.096L69.8192 118.565C69.6832 118.408 69.531 118.26 69.3642 118.12C68.43 117.329 67.1737 116.934 65.5935 116.934C64.0392 116.934 62.7893 117.329 61.8405 118.12C60.8934 118.91 60.419 119.936 60.419 121.201V127.402C60.419 128.263 60.6554 129.009 61.1298 129.637L59.9122 131.19C59.7973 131.336 59.8232 131.55 59.9705 131.664C60.1162 131.779 60.3299 131.754 60.4449 131.608L61.5912 130.146C61.6657 130.214 61.7418 130.28 61.8211 130.343C62.7553 131.095 64.0133 131.469 65.5935 131.469Z" fill="#FF6600"/>
<path d="M45.0602 134.432C43.4539 134.432 41.999 134.129 40.6957 133.523C39.3922 132.918 38.3784 132.095 37.6547 131.055C36.9305 130.015 36.5684 128.85 36.5684 127.559V121.082C36.5684 119.766 36.9305 118.567 37.6547 117.488C38.3784 116.408 39.3859 115.552 40.6759 114.92C41.966 114.288 43.4276 113.973 45.0602 113.973C46.6926 113.973 48.1603 114.288 49.4637 114.92C50.7672 115.552 51.7809 116.408 52.5051 117.488C53.2295 118.567 53.5914 119.766 53.5914 121.082V127.559C53.5914 128.85 53.2224 130.015 52.4855 131.055C51.7479 132.095 50.7346 132.918 49.444 133.523C48.1539 134.129 46.6926 134.432 45.0602 134.432ZM45.0602 131.469C46.6399 131.469 47.8973 131.094 48.8318 130.344C49.7666 129.593 50.2343 128.612 50.2343 127.401V121.201C50.2343 120.421 50.0562 119.732 49.7006 119.133L50.9704 117.514C51.0851 117.368 51.0595 117.155 50.913 117.039C50.7667 116.925 50.5527 116.95 50.4381 117.097L49.2866 118.564C49.1499 118.408 48.9984 118.261 48.8318 118.12C47.8973 117.33 46.6399 116.935 45.0602 116.935C43.5066 116.935 42.2559 117.33 41.3079 118.12C40.3602 118.91 39.8861 119.937 39.8861 121.201V127.401C39.8861 128.264 40.1233 129.01 40.5969 129.638L39.3798 131.19C39.2647 131.336 39.2908 131.55 39.4373 131.665C39.5836 131.78 39.797 131.754 39.9122 131.608L41.0586 130.146C41.1316 130.214 41.2083 130.28 41.2881 130.344C42.223 131.094 43.48 131.469 45.0602 131.469Z" stroke="#FF6600" stroke-width="6.97072e-05" stroke-miterlimit="2.61313"/>
<path fill-rule="evenodd" clip-rule="evenodd" d="M45.0583 134.431C43.4522 134.431 41.9983 134.129 40.695 133.523C39.3916 132.918 38.3765 132.095 37.6528 131.054C36.9291 130.015 36.5664 128.849 36.5664 127.559V121.082C36.5664 119.766 36.9291 118.566 37.6528 117.488C38.3765 116.408 39.3852 115.552 40.6739 114.92C41.9643 114.289 43.4263 113.973 45.0583 113.973C46.6919 113.973 48.1588 114.289 49.4621 114.92C50.7655 115.552 51.779 116.408 52.5043 117.488C53.228 118.566 53.5907 119.766 53.5907 121.082V127.559C53.5907 128.849 53.2215 130.015 52.4849 131.054C51.7466 132.095 50.7331 132.918 49.4427 133.523C48.1523 134.129 46.6919 134.431 45.0583 134.431ZM45.0583 131.469C46.6385 131.469 47.8965 131.095 48.8307 130.343C49.7649 129.594 50.2328 128.613 50.2328 127.402V121.201C50.2328 120.42 50.0547 119.732 49.6985 119.133L50.9695 117.514C51.0844 117.368 51.0585 117.155 50.9112 117.04C50.7655 116.925 50.5517 116.951 50.4368 117.096L49.2856 118.565C49.148 118.408 48.9975 118.26 48.8307 118.12C47.8965 117.329 46.6385 116.934 45.0583 116.934C43.5056 116.934 42.2541 117.329 41.307 118.12C40.3582 118.91 39.8855 119.936 39.8855 121.201V127.402C39.8855 128.263 40.1218 129.009 40.5962 129.637L39.3787 131.19C39.2637 131.336 39.2896 131.55 39.4354 131.664C39.5827 131.779 39.7964 131.754 39.9114 131.608L41.0576 130.146C41.1305 130.214 41.2066 130.28 41.2859 130.343C42.2217 131.095 43.4781 131.469 45.0583 131.469Z" fill="#FF6600"/>
</g>
<defs>
<clipPath id="clip0_128_413">
<rect width="136" height="136" fill="white"/>
</clipPath>
</defs>
</svg>
