<svg width="110" height="136" viewBox="0 0 110 136" fill="none" xmlns="http://www.w3.org/2000/svg">
<g style="mix-blend-mode:luminosity">
<path fill-rule="evenodd" clip-rule="evenodd" d="M55.0434 0C77.6073 0 96.2957 16.5751 99.5754 38.2032C96.8447 36.9914 94.0224 36.0117 91.1368 35.2734C88.9902 34.7227 86.8107 34.3055 84.6078 34.0265C80.1482 22.0406 68.594 13.5 55.0434 13.5C37.629 13.5 23.513 27.6024 23.513 45C23.513 55.289 28.449 64.4251 36.0876 70.1743C37.3897 66.9492 39.0648 63.8742 41.0893 61.0149C45.291 55.0829 50.8652 50.2547 57.3401 46.943C63.8151 43.6313 70.9963 41.9368 78.2689 42.0023C81.0419 42.0282 83.7985 42.307 86.501 42.8344C90.8881 43.6898 95.1391 45.1993 99.1063 47.3179C99.4065 47.4774 99.7044 47.6413 100 47.8078C98.5502 71.3531 78.9775 90 55.0434 90C30.1664 90 10 69.8532 10 45C10 20.1469 30.1664 0 55.0434 0ZM84.5188 56.2102C82.433 55.7601 80.2983 55.5211 78.1493 55.5024C73.056 55.4555 68.0309 56.6413 63.4984 58.9594C58.9659 61.2773 55.0622 64.6571 52.1226 68.8101C50.586 70.9805 49.3355 73.3313 48.3948 75.7992C50.5391 76.2587 52.763 76.5001 55.0434 76.5001C68.5048 76.5001 79.9955 68.072 84.5188 56.2102Z" fill="#007E27"/>
<path d="M16.6513 106.577H21.7811V126.192C21.7811 129.379 20.7363 131.81 18.6462 133.486C16.5834 135.162 14.0864 136 11.1551 136C8.95666 136 7.01603 135.574 5.33327 134.722C3.67762 133.871 2.40201 132.621 1.5063 130.973L5.9847 128.376C7.01603 130.299 8.79378 131.261 11.318 131.261C12.9736 131.261 14.2764 130.821 15.2263 129.942C16.1763 129.063 16.6513 127.813 16.6513 126.192V123.967C15.1042 126.055 12.9329 127.099 10.1373 127.099C7.26031 127.099 4.84471 126.082 2.89056 124.049C0.96352 121.989 0 119.489 0 116.549C0 113.637 0.977041 111.151 2.93126 109.091C4.88541 107.03 7.28749 106 10.1373 106C12.9329 106 15.1042 107.044 16.6513 109.132V106.577ZM6.83964 120.629C7.92526 121.673 9.29593 122.195 10.9516 122.195C12.6072 122.195 13.9642 121.673 15.0228 120.629C16.1085 119.558 16.6513 118.198 16.6513 116.549C16.6513 114.929 16.1085 113.596 15.0228 112.552C13.9642 111.481 12.6072 110.945 10.9516 110.945C9.29593 110.945 7.92526 111.481 6.83964 112.552C5.78112 113.596 5.25186 114.929 5.25186 116.549C5.25186 118.198 5.78112 119.558 6.83964 120.629Z" fill="#222222"/>
<path d="M31.7955 110.121C32.2846 108.802 33.0852 107.813 34.1979 107.154C35.3375 106.494 36.5996 106.165 37.9842 106.165V112.099C36.383 111.907 34.944 112.236 33.6684 113.088C32.4198 113.939 31.7955 115.354 31.7955 117.332V127.181H26.5439V106.577H31.7955V110.121Z" fill="#222222"/>
<path d="M57.6433 124.626C55.553 126.714 53.002 127.758 49.9894 127.758C46.9761 127.758 44.425 126.714 42.3354 124.626C40.2728 122.511 39.2407 119.929 39.2407 116.879C39.2407 113.83 40.2728 111.261 42.3354 109.173C44.425 107.058 46.9761 106 49.9894 106C53.002 106 55.553 107.058 57.6433 109.173C59.7329 111.261 60.7776 113.83 60.7776 116.879C60.7776 119.929 59.7329 122.511 57.6433 124.626ZM46.0403 120.959C47.0985 122.03 48.4151 122.566 49.9894 122.566C51.5636 122.566 52.8795 122.03 53.9384 120.959C54.9967 119.887 55.5261 118.527 55.5261 116.879C55.5261 115.231 54.9967 113.871 53.9384 112.799C52.8795 111.728 51.5636 111.192 49.9894 111.192C48.4151 111.192 47.0985 111.728 46.0403 112.799C45.009 113.871 44.4929 115.231 44.4929 116.879C44.4929 118.527 45.009 119.887 46.0403 120.959Z" fill="#222222"/>
<path d="M86.5997 106.577H92.1769L85.7036 127.182H80.6963L76.9511 114.695L73.2052 127.182H68.1979L61.7246 106.577H67.3017L70.7624 119.228L74.4673 106.577H79.4342L83.1391 119.269L86.5997 106.577Z" fill="#222222"/>
<path d="M100.962 122.195H110V127.182H93.918V123.638L102.508 111.563H94.3257V106.577H109.593V110.121L100.962 122.195Z" fill="#222222"/>
</g>
</svg>
