<svg width="208" height="90" viewBox="0 0 208 90" fill="none" xmlns="http://www.w3.org/2000/svg">
<g style="mix-blend-mode:luminosity" clip-path="url(#clip0_128_458)">
<path d="M174.064 54.3042L172.267 52.0905C169.57 48.8392 166.114 46.2796 161.897 44.4118C160.03 43.5817 157.956 42.8899 155.675 42.3365C154.362 42.0598 153.394 41.8522 152.426 41.7139C151.804 41.5755 151.182 41.5064 150.559 41.4372C150.075 41.368 149.522 41.2988 148.969 41.2296C143.715 40.5379 138.807 39.2927 134.383 37.6324C133.484 37.2865 132.585 36.9406 131.687 36.5256C132.032 39.0851 132.309 41.5064 132.447 42.6824C132.516 43.3741 132.585 44.0659 132.654 44.6885C132.654 44.9652 132.724 45.1728 132.724 45.4495L132.862 47.0406L131.617 46.0029L128.645 43.5125L128.437 43.305L128.368 43.0283L128.23 41.5755C128.023 39.9844 127.884 37.9783 127.608 35.9721C127.539 35.4187 127.47 34.8653 127.4 34.2427C124.981 32.8592 123.183 31.5448 121.732 30.1612L118.206 26.8407L122.492 29.0544C123.944 29.7462 125.465 30.4379 127.055 31.1297C126.917 30.0229 126.847 29.0544 126.709 28.2934L126.64 27.6017C126.156 24.2811 125.741 20.8914 125.396 17.5017L124.981 13.1436L126.709 17.1559C127.954 20.1305 129.06 23.451 130.166 27.6017C130.442 28.7777 130.788 30.4379 131.134 32.5824C132.516 33.0667 134.037 33.4818 135.627 33.8968C139.913 35.0037 144.338 35.8338 149.315 36.3872C149.661 36.3872 150.006 36.4564 150.352 36.5256C151.251 36.5947 152.149 36.7331 153.048 36.8715C154.431 37.079 155.813 37.4249 156.919 37.7016C159.685 38.4625 162.104 39.431 164.178 40.6762C166.46 41.9906 168.533 43.6509 170.123 45.3803C171.921 47.4556 173.096 49.5309 173.511 51.4679L174.064 54.3042Z" fill="#3FA80E"/>
<path d="M128.023 13.4898L125.742 11.7604C122.355 9.20079 118.414 7.54052 113.921 6.71039C111.916 6.36451 109.773 6.15697 107.492 6.15697H107.422C106.109 6.15697 105.072 6.22615 104.104 6.29533C103.482 6.29533 102.86 6.36451 102.238 6.50286C101.754 6.57204 101.201 6.64122 100.648 6.64122C98.228 6.91793 95.8084 6.9871 93.4579 6.9871C90.7618 6.9871 88.1348 6.84875 85.6461 6.50286C83.1574 6.15697 80.7378 5.67273 78.3182 4.98096C75.553 4.15082 73.4099 3.32069 71.5434 2.28303L67.3955 -0.138184L72.0964 0.968657C76.1752 1.93714 80.5995 2.49056 86.0609 2.62892C86.6831 2.62892 87.3053 2.62892 87.9966 2.62892C91.7988 2.62892 95.7392 2.35221 99.9562 1.79879C100.302 1.72961 100.648 1.72961 100.993 1.66043C101.892 1.52208 102.791 1.4529 103.689 1.38372C104.588 1.31455 105.556 1.24537 106.731 1.24537C107.008 1.24537 107.284 1.24537 107.561 1.24537C110.395 1.31455 113.022 1.72961 115.372 2.42139C117.93 3.18234 120.281 4.28918 122.216 5.67273C124.498 7.26381 126.019 8.99325 126.917 10.7919L128.023 13.4898Z" fill="#3FA80E"/>
<path d="M107.146 51.0532L104.795 48.0093C101.339 43.582 98.0895 40.2615 94.8403 37.8402C92.1442 35.8341 89.3099 34.3814 86.4064 33.6896C85.5077 33.4821 84.5398 33.2745 83.6411 33.2053C83.5029 33.2053 83.4337 33.2053 83.3646 33.2053L82.6042 33.1362L80.1154 33.067C79.8389 33.067 79.4933 33.067 79.1476 33.1362C78.9402 33.1362 78.7328 33.1362 78.5254 33.1362L77.765 33.2053L77.0045 33.3437C74.7923 33.5512 72.5802 34.1738 70.5062 34.7964C68.5014 35.419 66.4275 36.3183 64.1462 37.5635C62.0722 38.6012 60.0674 39.9156 57.9244 41.4375L54.8135 43.6512L56.4035 40.1923C57.4405 37.9094 58.9613 35.6957 61.1044 33.5512C63.0401 31.5451 65.2523 29.8848 67.6718 28.5013C68.2249 28.1554 68.8471 27.8787 69.4001 27.602L69.884 27.3944C70.4371 27.1869 70.921 26.9102 71.5432 26.7027L71.8197 26.6335C72.3728 26.4259 72.9258 26.2184 73.4789 26.0801C74.0319 25.9417 74.5849 25.8033 75.138 25.665L75.8984 25.4575C76.175 25.3883 76.3824 25.3191 76.6589 25.3191L78.3872 25.1116C78.8711 25.0424 79.355 24.9732 79.8389 24.9732H79.908H80.5993C79.8389 22.2061 79.0093 19.7157 77.9724 17.4329C76.3824 13.974 74.7232 11.2069 72.7875 8.78567L68.4323 3.25146L74.4467 6.50281C77.4885 8.16307 80.3228 10.861 82.7424 14.6658C84.7472 17.7788 86.199 21.376 87.0977 25.3191V25.3883C88.9642 25.8033 90.8307 26.4951 92.6282 27.4636C95.186 28.778 97.4673 30.5766 99.4721 32.7211C101.339 34.7964 102.929 37.0793 104.173 39.5697C105.487 42.3368 106.316 44.8272 106.662 47.3176L107.146 51.0532Z" fill="#3FA80E"/>
<path d="M19.0725 85.1575V90H16.3072C12.0211 90 8.35714 88.5472 5.31537 85.6418C2.27361 82.7363 0.683594 79.0007 0.683594 74.5042V44.6195C0.683594 40.2613 4.20928 36.6641 8.63366 36.6641V50.292H19.0033C19.0033 54.5119 15.6159 57.9016 11.3989 57.9016H8.7028V74.5042C8.7028 76.787 9.39411 78.6548 10.915 80.1076C12.4359 81.5603 14.1641 82.3213 16.3763 82.3213C17.8281 82.3904 19.0725 83.6356 19.0725 85.1575Z" fill="#606060"/>
<path d="M49.6977 55.0654V58.0401C49.6977 60.5305 46.725 61.7065 44.9968 59.977C43.3376 58.3168 41.6093 57.4866 39.6737 57.4866C37.738 57.4866 36.0789 58.1784 34.6271 59.7003C33.1062 61.1531 32.4149 62.8133 32.4149 64.7503V82.1138C32.4149 86.472 28.8892 90.0693 24.4648 90.0693V50.7072H32.4149V51.9524H32.484C34.8345 50.5689 37.3923 49.9463 40.2267 49.9463C43.1994 49.9463 45.9646 50.9148 48.5916 52.9209C49.2829 53.336 49.6977 54.1661 49.6977 55.0654Z" fill="#606060"/>
<path d="M207.316 55.0654V58.0401C207.316 60.5305 204.343 61.7065 202.615 59.977C200.956 58.3168 199.228 57.4866 197.292 57.4866C195.356 57.4866 193.697 58.1784 192.245 59.7003C190.724 61.1531 190.033 62.8133 190.033 64.7503V82.1138C190.033 86.472 186.507 90.0693 182.083 90.0693V50.7072H190.033V51.9524H190.102C192.453 50.5689 195.011 49.9463 197.845 49.9463C200.818 49.9463 203.583 50.9148 206.21 52.9209C206.901 53.336 207.316 54.1661 207.316 55.0654Z" fill="#606060"/>
<path d="M93.6646 45.7264V50.4305L92.282 49.3928C91.5907 48.8394 90.8303 48.3551 90.139 47.9401C86.4059 45.7956 82.4654 44.6887 78.4558 44.6887C72.234 44.6887 66.8418 46.9024 62.3483 51.3298C57.9239 55.7571 55.6426 61.153 55.6426 67.3098C55.6426 73.5358 57.9239 78.8624 62.3483 83.2898C66.7727 87.7171 72.234 89.9308 78.4558 89.9308C82.5346 89.9308 86.4059 88.8932 90.0007 86.7487C90.8303 86.2644 91.5907 85.7802 92.3512 85.1576L93.7338 84.0507V88.8932C97.8816 88.4781 101.131 84.95 101.131 80.661V53.8893C101.062 49.6695 97.8125 46.1414 93.6646 45.7264ZM89.3094 78.3782C86.2676 81.4912 82.7419 83.0131 78.525 83.0131C74.2388 83.0131 70.7131 81.4912 67.6023 78.3782C64.4914 75.2652 62.9705 71.668 62.9705 67.4481C62.9705 63.2283 64.4914 59.6311 67.6023 56.4489C70.7131 53.2667 74.308 51.7448 78.525 51.7448C82.7419 51.7448 86.2676 53.2667 89.3094 56.3797C92.3512 59.4927 93.872 63.1591 93.872 67.379C93.872 71.668 92.3512 75.2652 89.3094 78.3782Z" fill="#3FA80E"/>
<path d="M128.368 85.1575V90H125.603C121.317 90 117.653 88.5472 114.611 85.6418C111.57 82.7363 109.979 79.0007 109.979 74.5042V44.6195C109.979 40.2613 113.505 36.6641 117.93 36.6641V50.292H128.299C128.299 54.5119 124.912 57.9016 120.695 57.9016H117.999V74.5042C117.999 76.787 118.759 78.6548 120.211 80.1076C121.732 81.5603 123.529 82.3213 125.672 82.3213C127.124 82.3904 128.368 83.6356 128.368 85.1575Z" fill="#606060"/>
<path d="M166.045 57.5558C162.312 53.8202 157.75 51.9524 152.496 51.9524C147.242 51.9524 142.679 53.8202 138.946 57.5558C135.213 61.2914 133.277 65.7187 133.277 70.8379C133.277 75.8878 135.144 80.4535 138.808 84.2583C142.472 88.0631 146.965 90 152.15 90H152.772C157.957 90 162.451 88.0631 166.115 84.2583C169.709 80.4535 171.576 75.957 171.576 70.907C171.645 65.7879 169.779 61.2914 166.045 57.5558ZM164.248 71.0454C164.248 74.2967 163.142 77.0638 160.792 79.4159C158.51 81.7679 155.814 82.9439 152.565 82.9439C149.316 82.9439 146.62 81.7679 144.2 79.4159C141.85 77.0638 140.674 74.2967 140.674 71.1146C140.674 67.8632 141.85 65.1653 144.2 62.6749C146.551 60.2537 149.316 59.0777 152.496 59.0777C155.676 59.0777 158.372 60.2537 160.722 62.6057C163.142 65.0269 164.248 67.794 164.248 71.0454Z" fill="#3FA80E"/>
</g>
<defs>
<clipPath id="clip0_128_458">
<rect width="206.633" height="90" fill="white" transform="translate(0.683594)"/>
</clipPath>
</defs>
</svg>
