<svg width="208" height="136" viewBox="0 0 208 136" fill="none" xmlns="http://www.w3.org/2000/svg">
<path d="M103.725 90C79.0708 89.8167 59.1828 69.9287 58.9995 45.275C58.9995 45.1833 58.9995 45.0917 58.9995 45C58.9995 44.9084 58.9995 44.8167 58.9995 44.7251C59.1828 39.2261 63.6736 34.8269 69.1726 34.8269C74.7633 34.8269 79.2541 39.3177 79.3457 44.9084V45V45.0917C79.4374 58.6558 90.4353 69.6538 103.999 69.6538C98.4089 69.6538 93.8264 74.2363 93.8264 79.8269C93.8264 85.3259 98.2256 89.8167 103.725 90Z" fill="url(#paint0_linear_128_378)"/>
<path d="M149 45.275C148.816 69.9287 128.928 89.8167 104.275 90C104.183 90 104.091 90 104 90C103.908 90 103.816 90 103.725 90C98.2258 89.8167 93.8267 85.3258 93.8267 79.8269C93.8267 74.2362 98.4091 69.6538 104 69.6538C117.656 69.6538 128.654 58.5642 128.654 45C128.654 50.5906 133.236 55.1731 138.827 55.1731C144.326 55.1731 148.816 50.6823 149 45.275Z" fill="url(#paint1_linear_128_378)"/>
<path d="M149 45C149 45.0916 149 45.1833 149 45.2749C148.816 50.7739 144.326 55.1731 138.827 55.1731C133.236 55.1731 128.653 50.5906 128.653 45C128.653 31.4358 117.655 20.3462 104.091 20.3462C109.682 20.2546 114.173 15.7637 114.173 10.1731C114.173 4.67414 109.774 0.183299 104.275 0C128.928 0.183299 148.816 20.0713 149 44.725C149 44.8167 149 44.9083 149 45Z" fill="url(#paint2_linear_128_378)"/>
<path d="M114.173 10.1731C114.173 15.7637 109.682 20.2546 104.091 20.3462H103.999H103.908C90.3437 20.4379 79.3457 31.3442 79.3457 44.9083C79.2541 39.3177 74.7633 34.8269 69.1726 34.8269C63.6736 34.8269 59.1828 39.2261 58.9995 44.725C59.1828 20.0713 79.0708 0.183299 103.725 0C103.816 0 103.908 0 103.999 0C104.091 0 104.183 0 104.274 0C109.773 0.0916497 114.173 4.58249 114.173 10.1731Z" fill="url(#paint3_linear_128_378)"/>
<path d="M0 106H4.95239L10.1249 131.411H10.7852L15.7376 106H23.0011L28.1736 131.411H28.6138L33.4561 106H38.2985L32.2456 135.664H24.5418L19.5895 111.261H18.9291L14.0868 135.664H6.27303L0 106Z" fill="#5A5A5A"/>
<path d="M43.0303 132.866C41.1594 130.739 40.1689 128.052 40.1689 124.806C40.1689 121.448 41.1594 118.761 43.0303 116.746C44.9012 114.619 47.3224 113.612 50.1838 113.612C51.9446 113.612 53.5954 114.172 55.1362 115.179C55.7965 115.627 56.3468 116.186 56.897 116.746H57.1171V113.948H61.5193V135.552H57.1171V132.642H56.897C56.4568 133.201 55.9065 133.761 55.1362 134.321C53.5954 135.44 51.9446 136 50.1838 136C47.3224 136 44.9012 134.992 43.0303 132.866ZM46.442 119.433C45.3414 120.664 44.7912 122.455 44.7912 124.806C44.7912 127.157 45.3414 128.948 46.442 130.179C47.5425 131.41 49.0832 132.082 51.0642 132.082C52.9351 132.082 54.3658 131.41 55.4663 130.179C56.5669 128.948 57.1171 127.157 57.1171 124.918C57.1171 122.679 56.5669 120.888 55.4663 119.657C54.3658 118.425 52.9351 117.754 51.0642 117.754C49.0832 117.642 47.5425 118.201 46.442 119.433Z" fill="#5A5A5A"/>
<path d="M65.8115 128.836H70.6539C70.874 129.395 71.2041 129.955 71.6443 130.403C72.6348 131.41 74.0655 131.97 75.8264 131.97C77.3671 131.97 78.4676 131.746 79.128 131.298C79.7883 130.851 80.1184 130.179 80.1184 129.507C80.1184 129.283 80.0084 129.06 79.8983 128.836C79.7883 128.612 79.5682 128.388 79.3481 128.276C79.0179 128.052 78.7978 127.94 78.5777 127.828C78.3576 127.716 77.9174 127.604 77.4772 127.492C77.0369 127.38 76.5967 127.269 76.2666 127.157C75.9364 127.045 75.4962 126.933 74.8359 126.821C74.1756 126.709 73.7353 126.597 73.4052 126.485C69.0031 125.478 66.6919 123.351 66.6919 119.992C66.6919 118.313 67.4623 116.858 69.0031 115.515C70.5438 114.283 72.5248 113.612 75.056 113.612C78.5777 113.612 81.1089 114.731 82.8698 116.97C83.6401 117.977 84.1904 119.097 84.4105 120.328H79.7883C79.5682 119.769 79.238 119.321 78.9078 118.985C77.9174 118.089 76.5967 117.642 75.056 117.642C73.8454 117.642 72.8549 117.866 72.1946 118.313C71.5343 118.761 71.2041 119.321 71.2041 119.992C71.2041 120.216 71.3142 120.44 71.4242 120.664C71.5343 120.888 71.7544 121.112 71.9745 121.224C72.3047 121.448 72.5248 121.56 72.7449 121.672C72.965 121.783 73.4052 121.895 73.8454 122.007C74.2856 122.119 74.7258 122.231 75.056 122.343C75.3861 122.455 75.8264 122.567 76.4867 122.679C77.0369 122.791 77.5872 122.903 77.9174 123.015C82.3195 124.022 84.6306 126.261 84.6306 129.507C84.6306 131.298 83.8602 132.866 82.2094 134.097C80.5586 135.328 78.4676 136 75.6062 136C71.9745 136 69.2232 134.769 67.3523 132.418C66.5819 131.298 66.0316 130.179 65.8115 128.836Z" fill="#5A5A5A"/>
<path d="M87.6035 117.978V113.948H90.1347V109.246H94.5369V113.948H101.03V117.978H94.5369V131.523H101.25V135.552H90.2448V117.978H87.6035Z" fill="#5A5A5A"/>
<path d="M107.633 132.754C105.542 130.627 104.441 127.94 104.441 124.806C104.441 121.672 105.542 118.985 107.633 116.858C109.724 114.731 112.255 113.612 115.337 113.612C118.308 113.612 120.949 114.731 123.04 116.858C125.131 118.985 126.232 121.672 126.232 124.806V126.261H108.844C109.174 128.052 109.944 129.395 111.155 130.403C112.365 131.41 113.686 131.97 115.337 131.97C117.318 131.97 118.858 131.522 119.959 130.515C120.509 130.067 120.949 129.619 121.28 129.06H125.902C125.351 130.403 124.581 131.634 123.701 132.53C121.39 134.881 118.638 136 115.337 136C112.255 136 109.724 134.992 107.633 132.754ZM109.064 122.679H121.61C121.39 121.224 120.729 120.104 119.629 119.097C118.528 118.089 117.098 117.642 115.337 117.642C113.796 117.642 112.475 118.089 111.375 118.985C110.164 119.88 109.394 121.112 109.064 122.679Z" fill="#5A5A5A"/>
<path d="M130.743 135.552V107.567H135.145V131.522H139.988V135.552H130.743Z" fill="#5A5A5A"/>
<path d="M145.491 132.754C143.4 130.627 142.3 127.94 142.3 124.806C142.3 121.672 143.4 118.985 145.491 116.858C147.582 114.731 150.114 113.612 153.195 113.612C156.166 113.612 158.808 114.731 160.899 116.858C162.99 118.985 164.09 121.672 164.09 124.806V126.261H146.812C147.142 128.052 147.913 129.395 149.123 130.403C150.334 131.41 151.654 131.97 153.305 131.97C155.286 131.97 156.827 131.522 157.927 130.515C158.478 130.067 158.918 129.619 159.248 129.06H163.87C163.32 130.403 162.55 131.634 161.669 132.53C159.358 134.881 156.607 136 153.305 136C150.224 136 147.582 134.992 145.491 132.754ZM146.922 122.679H159.358C159.138 121.224 158.478 120.104 157.377 119.097C156.277 118.089 154.846 117.642 153.085 117.642C151.544 117.642 150.224 118.089 149.123 118.985C148.023 119.88 147.362 121.112 146.922 122.679Z" fill="#5A5A5A"/>
<path d="M167.171 128.836H172.013C172.233 129.395 172.564 129.955 173.004 130.403C173.994 131.41 175.425 131.97 177.186 131.97C178.726 131.97 179.827 131.746 180.487 131.298C181.148 130.851 181.478 130.179 181.478 129.507C181.478 129.283 181.368 129.06 181.258 128.836C181.148 128.612 180.928 128.388 180.707 128.276C180.377 128.052 180.157 127.94 179.937 127.828C179.717 127.716 179.277 127.604 178.837 127.492C178.286 127.38 177.956 127.269 177.626 127.157C177.296 127.045 176.856 126.933 176.195 126.821C175.535 126.709 175.095 126.597 174.765 126.485C170.362 125.478 168.051 123.351 168.051 119.992C168.051 118.313 168.822 116.858 170.362 115.515C171.903 114.283 173.884 113.612 176.415 113.612C179.937 113.612 182.468 114.731 184.229 116.97C185 117.977 185.55 119.097 185.77 120.328H181.148C180.928 119.769 180.597 119.321 180.267 118.985C179.277 118.089 177.956 117.642 176.415 117.642C175.205 117.642 174.214 117.866 173.554 118.313C172.894 118.761 172.564 119.321 172.564 119.992C172.564 120.216 172.674 120.44 172.784 120.664C172.894 120.888 173.114 121.112 173.334 121.224C173.664 121.448 173.884 121.56 174.104 121.672C174.324 121.783 174.765 121.895 175.205 122.007C175.645 122.119 176.085 122.231 176.415 122.343C176.746 122.455 177.186 122.567 177.846 122.679C178.396 122.791 178.947 122.903 179.277 123.015C183.679 124.022 185.99 126.261 185.99 129.507C185.99 131.298 185.22 132.866 183.569 134.097C181.918 135.328 179.827 136 176.966 136C173.334 136 170.583 134.769 168.712 132.418C168.051 131.298 167.391 130.179 167.171 128.836Z" fill="#5A5A5A"/>
<path d="M189.181 128.836H194.023C194.243 129.395 194.573 129.955 195.013 130.403C196.004 131.41 197.435 131.97 199.196 131.97C200.736 131.97 201.837 131.746 202.497 131.298C203.157 130.851 203.488 130.179 203.488 129.507C203.488 129.283 203.378 129.06 203.267 128.836C203.157 128.612 202.937 128.388 202.717 128.276C202.387 128.052 202.167 127.94 201.947 127.828C201.727 127.716 201.287 127.604 200.846 127.492C200.296 127.38 199.966 127.269 199.636 127.157C199.306 127.045 198.865 126.933 198.205 126.821C197.545 126.709 197.104 126.597 196.774 126.485C192.372 125.478 190.061 123.351 190.061 119.992C190.061 118.313 190.831 116.858 192.372 115.515C193.913 114.283 195.894 113.612 198.425 113.612C201.947 113.612 204.478 114.731 206.239 116.97C207.009 117.977 207.56 119.097 207.78 120.328H203.157C202.937 119.769 202.607 119.321 202.277 118.985C201.287 118.089 199.966 117.642 198.425 117.642C197.215 117.642 196.224 117.866 195.564 118.313C194.903 118.761 194.573 119.321 194.573 119.992C194.573 120.216 194.683 120.44 194.793 120.664C194.903 120.888 195.124 121.112 195.344 121.224C195.674 121.448 195.894 121.56 196.114 121.672C196.334 121.783 196.774 121.895 197.215 122.007C197.655 122.119 198.095 122.231 198.425 122.343C198.755 122.455 199.196 122.567 199.856 122.679C200.406 122.791 200.956 122.903 201.287 123.015C205.689 124.022 208 126.261 208 129.507C208 131.298 207.229 132.866 205.579 134.097C203.928 135.328 201.837 136 198.975 136C195.344 136 192.592 134.769 190.721 132.418C190.061 131.298 189.511 130.179 189.181 128.836Z" fill="#5A5A5A"/>
<defs>
<linearGradient id="paint0_linear_128_378" x1="81.488" y1="23.2885" x2="81.488" y2="94.3025" gradientUnits="userSpaceOnUse">
<stop stop-color="#00CC3E"/>
<stop offset="1" stop-color="#00842C"/>
</linearGradient>
<linearGradient id="paint1_linear_128_378" x1="83.7402" y1="67.4676" x2="153.902" y2="67.4676" gradientUnits="userSpaceOnUse">
<stop stop-color="#00CC3E"/>
<stop offset="1" stop-color="#00842C"/>
</linearGradient>
<linearGradient id="paint2_linear_128_378" x1="126.526" y1="64.905" x2="126.526" y2="-4.53739" gradientUnits="userSpaceOnUse">
<stop stop-color="#00CC3E"/>
<stop offset="1" stop-color="#00842C"/>
</linearGradient>
<linearGradient id="paint3_linear_128_378" x1="124.071" y1="22.4302" x2="54.5139" y2="22.4302" gradientUnits="userSpaceOnUse">
<stop stop-color="#00CC3E"/>
<stop offset="1" stop-color="#00842C"/>
</linearGradient>
</defs>
</svg>
